<?xml version="1.0" encoding="utf-8"?>
<!-- Generator: Adobe Illustrator 16.0.0, SVG Export Plug-In . SVG Version: 6.00 Build 0)  -->
<!DOCTYPE svg PUBLIC "-//W3C//DTD SVG 1.1//EN" "http://www.w3.org/Graphics/SVG/1.1/DTD/svg11.dtd">
<svg version="1.1" id="Layer_1" xmlns="http://www.w3.org/2000/svg" xmlns:xlink="http://www.w3.org/1999/xlink" x="0px" y="0px"
	 width="350px" height="72.23px" viewBox="0 0 350 72.23" enable-background="new 0 0 350 72.23" xml:space="preserve">
<g>
	<path d="M7.31,19.904c0-4.632-0.145-12.303-0.217-13.605C6.947,4.417,6.586,3.693,4.415,3.693H1.014
		c-0.435,0-0.507-0.361-0.507-0.724V1.378c0-0.361,0.072-0.507,0.507-0.507c0.796,0,3.401,0.217,9.408,0.217
		c7.02,0,10.059-0.217,10.71-0.217c0.579,0,0.651,0.218,0.651,0.579v1.664c0,0.362-0.145,0.579-0.724,0.579h-4.342
		c-2.244,0-2.533,0.724-2.533,2.822c0,0.941-0.217,11.869-0.217,16.935v6.224c0,1.23,0,16.862,0.217,19.829
		c1.592,0.145,15.921,0.289,18.165,0c4.27-0.651,8.611-9.336,9.625-12.158c0.145-0.289,0.289-0.434,0.579-0.289l1.158,0.434
		c0.217,0.145,0.217,0.217,0.144,0.652c-0.217,0.506-3.111,12.447-3.545,14.401c-0.941-0.073-6.586-0.146-13.027-0.146
		c-6.44-0.072-13.533-0.072-17.44-0.072c-2.822,0-4.921,0.072-6.441,0.072c-1.447,0.072-2.315,0.146-2.822,0.146S0,52.397,0,52.036
		v-1.809c0-0.363,0.072-0.508,0.507-0.508H3.98c2.678,0,3.112-1.013,3.112-1.953c0-1.375,0.217-19.396,0.217-23.81V19.904z"/>
	<path d="M52.471,31.266c0-2.46-0.434-3.763-4.052-4.342c-0.507-0.072-0.652-0.217-0.652-0.506v-0.651
		c0-0.218,0.146-0.362,0.507-0.507c2.316-0.869,5.066-2.026,7.816-3.546c0.579-0.29,0.94-0.435,1.375-0.435
		c0.361,0,0.435,0.362,0.361,0.868c-0.145,1.23-0.145,5.79-0.145,11.797v7.888c0,2.822,0,5.428,0.072,6.224
		c0.146,1.375,0.362,1.881,1.158,1.881h3.329c0.579,0,0.724,0.218,0.724,0.652v1.23c0,0.506-0.145,0.724-0.651,0.724
		c-0.578,0-3.908-0.218-6.947-0.218c-4.197,0-7.021,0.218-7.816,0.218c-0.361,0-0.578-0.146-0.578-0.579v-1.447
		c0-0.435,0.217-0.58,0.724-0.58h3.546c0.796,0,1.086-0.289,1.157-1.446c0.072-2.171,0.072-4.415,0.072-6.586V31.266z M49.215,9.194
		c0-1.81,1.52-3.764,4.414-3.764c2.533,0,3.764,1.954,3.764,3.546c0,1.882-1.303,3.98-4.197,3.98
		C51.603,12.957,49.215,11.51,49.215,9.194z"/>
	<path d="M72.157,25.621h-4.993c-0.362,0-0.507-0.145-0.362-0.796l0.289-2.171c0.073-0.435,0.29-0.507,0.868-0.507h4.198v-1.374
		c0-7.165,2.026-11.869,4.849-15.054c3.835-4.197,7.815-5.717,11.868-5.717c3.401,0,6.586,1.303,6.586,4.053
		c0,1.736-1.882,3.111-3.04,3.111c-0.723,0-1.446-0.145-2.026-0.434c-0.651-0.362-1.447-1.303-1.736-1.665
		c-0.94-1.157-1.954-1.664-3.329-1.664c-1.882,0-3.836,0.507-5.427,2.532c-2.679,3.401-2.534,9.698-2.534,14.764v1.447h8.757
		c0.507,0,0.579,0.435,0.507,0.724l-0.362,2.389c-0.071,0.289-0.361,0.361-0.94,0.361h-7.961v6.441c0,8.539,0,15.197,0.073,15.993
		c0.145,1.23,0.361,1.881,1.881,1.881h4.125c0.651,0,0.797,0.146,0.797,0.58v1.157c0,0.579-0.146,0.869-0.507,0.869
		c-0.435,0-3.112-0.218-8.685-0.218c-3.98,0-7.671,0.218-8.25,0.218c-0.434,0-0.579-0.146-0.579-0.507v-1.592
		c0-0.362,0.146-0.508,0.724-0.508h3.474c1.376,0,1.664-0.867,1.737-2.531V33.799V25.621z"/>
	<path d="M95.533,33.075c-0.145,0.651-0.217,1.81-0.217,3.474c0,7.093,4.486,12.448,10.276,12.448c4.415,0,7.526-2.533,8.757-4.922
		c0.145-0.289,0.435-0.434,0.651-0.361l0.94,0.506c0.217,0.072,0.362,0.289,0,1.086c-1.303,2.895-5.065,7.889-11.507,7.889
		c-4.125,0-8.684-1.23-11.362-5.139c-2.532-3.691-3.184-6.369-3.184-11.435c0-2.822,0.725-7.671,4.56-11.506
		c3.112-3.185,6.729-3.836,10.349-3.836c8.322,0,10.639,7.815,10.639,10.638c0,1.014-0.869,1.158-2.027,1.158H95.533z
		 M107.04,30.904c1.375,0,1.954-0.361,1.954-1.013c0-1.665-0.869-6.441-5.572-6.441c-3.185,0-6.225,2.099-7.599,7.454H107.04z"/>
	<path d="M147.644,46.753c-5.211-4.921-7.743-13.315-7.743-20.263c0-6.73,2.171-13.679,7.382-19.178
		c3.69-3.908,10.203-7.31,18.092-7.31c6.586,0,12.014,2.46,14.618,3.979c0.941,0.58,1.303,0.508,1.447,0l0.58-2.098
		c0.145-0.435,0.289-0.435,0.939-0.435c0.652,0,0.797,0.145,0.797,1.158c0,1.374,1.447,12.013,1.81,14.039
		c0.071,0.362,0,0.651-0.29,0.724l-1.085,0.29c-0.361,0.072-0.507,0-0.725-0.579c-1.013-2.389-2.604-5.862-5.645-8.974
		c-3.039-3.112-6.874-5.572-12.592-5.572c-12.954,0-18.165,11.506-18.092,22.072c0,4.197,1.303,12.375,6.947,18.599
		c4.921,5.5,9.045,6.079,13.895,6.079c8.178,0,14.546-4.487,17.875-9.191c0.217-0.361,0.362-0.434,0.579-0.217l0.94,0.724
		c0.217,0.146,0.362,0.29,0.146,0.651c-4.342,6.296-11.362,12.158-21.566,12.158C157.414,53.411,151.985,50.733,147.644,46.753z"/>
	<path d="M214.733,43.714c0,4.125,0.868,5.428,2.171,5.428c1.158,0,2.171-0.579,2.532-1.086c0.29-0.361,0.435-0.507,0.725-0.289
		l0.724,0.578c0.217,0.218,0.361,0.58-0.072,1.303c-0.579,1.086-1.954,3.547-5.645,3.547c-2.605,0-4.486-1.882-5.138-4.85h-0.146
		c-1.52,1.81-3.908,3.329-7.165,4.415c-1.375,0.435-2.678,0.435-4.269,0.435c-1.737,0-4.344-1.447-4.344-6.007
		c0-3.329,1.521-6.224,7.237-8.757c3.257-1.447,7.021-3.185,8.178-4.197v-4.632c-0.144-1.23-0.217-3.111-1.013-4.053
		c-0.796-0.94-2.243-1.592-4.343-1.592c-1.447,0-3.69,0.579-4.703,1.52c-1.013,0.941-0.361,2.026-0.361,3.329
		c0,2.533-0.869,4.125-3.837,4.125c-1.158,0-1.736-0.651-1.736-2.316c0-2.315,2.026-5.065,4.993-6.802
		c3.039-1.81,5.573-2.533,8.829-2.533c3.401,0,4.776,1.014,5.789,1.954c1.521,1.52,1.593,3.185,1.593,5.138v11.072V43.714z
		 M209.45,36.403c-2.605,1.955-9.697,3.402-9.697,9.408c0,2.679,1.592,3.98,3.763,3.98c2.1,0,5.935-2.532,5.935-4.486V36.403z"/>
	<path d="M227.762,31.845c0-1.736-0.506-2.75-2.605-3.907l-1.664-0.94c-0.507-0.218-0.507-0.435-0.507-0.651v-0.579
		c0-0.218,0.146-0.362,0.507-0.507l6.947-3.474c0.579-0.29,1.158-0.579,1.664-0.579c0.362,0,0.507,0.361,0.507,1.447l0.29,3.474
		h0.217c1.954-2.532,5.718-4.849,10.565-4.849c3.69,0,6.151,1.592,8.251,3.546c2.75,2.75,3.908,5.718,3.908,11.29
		c0,9.479-6.586,17.079-15.633,17.079c-1.954,0-4.993-0.29-7.237-1.23v15.27c0,2.026,0.507,2.389,1.593,2.389h3.185
		c0.579,0,0.651,0.289,0.651,0.723v1.23c0,0.435-0.146,0.652-0.651,0.652c-0.362,0-2.822-0.218-7.454-0.218
		c-4.197,0-6.729,0.218-7.31,0.218c-0.506,0-0.651-0.218-0.651-0.652v-1.303c0-0.361,0.146-0.65,0.868-0.65h2.822
		c1.231,0,1.376-0.725,1.521-1.81c0.217-1.593,0.217-5.5,0.217-12.593V31.845z M232.972,45.089c0,1.592,0.146,2.895,1.521,3.836
		c2.025,1.446,4.269,1.953,7.235,1.953c4.125,0,8.396-3.111,8.396-12.086c0-10.131-4.559-14.184-9.408-14.184
		c-3.039,0-6.006,1.737-7.744,4.632V45.089z"/>
	<path d="M265.903,31.266c0-2.46-0.435-3.763-4.054-4.342c-0.506-0.072-0.651-0.217-0.651-0.506v-0.651
		c0-0.218,0.146-0.362,0.507-0.507c2.315-0.869,5.066-2.026,7.815-3.546c0.579-0.29,0.941-0.435,1.376-0.435
		c0.361,0,0.434,0.362,0.361,0.868c-0.145,1.23-0.145,5.79-0.145,11.797v7.888c0,2.822,0,5.428,0.072,6.224
		c0.145,1.375,0.362,1.881,1.158,1.881h3.329c0.578,0,0.724,0.218,0.724,0.652v1.23c0,0.506-0.146,0.724-0.651,0.724
		c-0.579,0-3.909-0.218-6.948-0.218c-4.196,0-7.019,0.218-7.815,0.218c-0.361,0-0.579-0.146-0.579-0.579v-1.447
		c0-0.435,0.218-0.58,0.725-0.58h3.545c0.797,0,1.086-0.289,1.158-1.446c0.073-2.171,0.073-4.415,0.073-6.586V31.266z
		 M262.646,9.194c0-1.81,1.52-3.764,4.414-3.764c2.533,0,3.763,1.954,3.763,3.546c0,1.882-1.303,3.98-4.197,3.98
		C265.034,12.957,262.646,11.51,262.646,9.194z"/>
	<path d="M290.076,43.279c0,5.428,2.461,6.368,3.764,6.368c1.664,0,3.762-0.289,4.776-0.94c0.361-0.217,0.651-0.145,0.868,0.145
		l0.361,0.651c0.217,0.289,0.072,0.579-0.145,0.796c-0.724,0.724-3.69,2.896-8.032,2.896c-3.547,0-7.021-3.402-7.021-6.152
		c0-2.967,0.217-9.336,0.217-10.348v-1.593c0-1.303,0.072-6.151,0.145-9.19h-4.414c-0.651,0-1.086-0.29-1.086-0.869
		c0-0.578,0.435-0.795,1.303-1.303c1.736-1.013,7.31-6.657,8.251-9.118c0.217-0.579,0.578-0.724,1.013-0.724
		c0.578,0,0.724,0.507,0.724,1.086l-0.362,7.164h10.06c0.435,0,0.651,0.362,0.507,0.651l-0.724,2.533
		c-0.072,0.361-0.218,0.579-0.651,0.579h-9.336c-0.145,3.329-0.217,6.803-0.217,10.132V43.279z"/>
	<path d="M325.249,43.714c0,4.125,0.868,5.428,2.171,5.428c1.158,0,2.171-0.579,2.532-1.086c0.29-0.361,0.435-0.507,0.725-0.289
		l0.724,0.578c0.218,0.218,0.361,0.58-0.072,1.303c-0.579,1.086-1.954,3.547-5.645,3.547c-2.605,0-4.488-1.882-5.139-4.85H320.4
		c-1.521,1.81-3.908,3.329-7.165,4.415c-1.375,0.435-2.678,0.435-4.27,0.435c-1.737,0-4.343-1.447-4.343-6.007
		c0-3.329,1.521-6.224,7.237-8.757c3.257-1.447,7.02-3.185,8.179-4.197v-4.632c-0.146-1.23-0.218-3.111-1.015-4.053
		c-0.795-0.94-2.242-1.592-4.342-1.592c-1.447,0-3.69,0.579-4.703,1.52c-1.014,0.941-0.363,2.026-0.363,3.329
		c0,2.533-0.868,4.125-3.835,4.125c-1.158,0-1.736-0.651-1.736-2.316c0-2.315,2.026-5.065,4.993-6.802
		c3.039-1.81,5.573-2.533,8.829-2.533c3.401,0,4.776,1.014,5.789,1.954c1.521,1.52,1.593,3.185,1.593,5.138v11.072V43.714z
		 M319.966,36.403c-2.605,1.955-9.698,3.402-9.698,9.408c0,2.679,1.593,3.98,3.764,3.98c2.1,0,5.935-2.532,5.935-4.486V36.403z"/>
	<path d="M343.993,30.76c0,3.764,0,14.69,0.073,16.935c0.071,1.23,0.361,2.242,1.881,2.242h3.257c0.651,0,0.796,0.218,0.796,0.652
		v1.23c0,0.434-0.145,0.724-0.435,0.724c-0.506,0-3.69-0.218-8.177-0.218c-4.632,0-7.527,0.218-8.179,0.218
		c-0.361,0-0.506-0.29-0.506-0.724v-1.23c0-0.507,0.145-0.652,0.94-0.652h3.475c0.796,0,1.52-0.506,1.592-1.809
		c0.072-2.244,0.072-14.69,0.072-18.888v-4.56c0-5.138-0.072-11.724-0.217-13.605c-0.145-2.461-1.303-3.618-3.619-4.342L333.5,6.227
		c-0.361-0.145-0.435-0.217-0.435-0.362V5.285c0-0.217,0.218-0.361,0.651-0.506c2.533-1.158,5.79-2.461,8.468-4.197
		c0.651-0.435,1.085-0.579,1.52-0.579c0.507,0,0.651,0.362,0.579,1.303c-0.072,3.979-0.29,19.033-0.29,23.013V30.76z"/>
</g>
</svg>
