<svg xmlns="http://www.w3.org/2000/svg" viewBox="0 266 1280 269.5">
  <path fill="black" d="M27.734 341.714c0-16.939-.53-44.994-.794-49.755-.534-6.883-1.854-9.53-9.793-9.53H4.708c-1.591 0-1.854-1.32-1.854-2.648v-5.818c0-1.32.264-1.854 1.854-1.854 2.911 0 12.438.794 34.406.794 25.673 0 36.787-.794 39.168-.794 2.118 0 2.381.797 2.381 2.118v6.085c0 1.324-.53 2.118-2.648 2.118H62.137c-8.207 0-9.264 2.647-9.264 10.32 0 3.441-.794 43.407-.794 61.934v22.762c0 4.498 0 61.667.794 72.518 5.822.53 58.225 1.057 66.432 0 15.616-2.381 31.492-34.144 35.2-44.464.53-1.057 1.057-1.587 2.118-1.057l4.235 1.587c.793.53.793.794.526 2.385-.793 1.851-11.377 45.521-12.964 52.666-3.441-.267-24.086-.533-47.642-.533-23.552-.264-49.492-.264-63.781-.264-10.32 0-17.997.264-23.556.264-5.292.263-8.466.533-10.32.533S1 460.546 1 459.226v-6.616c0-1.327.263-1.857 1.854-1.857h12.702c9.793 0 11.381-3.705 11.381-7.143 0-5.028.793-70.934.793-87.076v-14.819h.004zM192.894 383.267c0-8.997-1.587-13.762-14.819-15.88-1.854-.263-2.384-.793-2.384-1.85v-2.381c0-.798.534-1.324 1.854-1.854 8.47-3.178 18.527-7.409 28.584-12.969 2.118-1.061 3.438-1.591 5.029-1.591 1.32 0 1.591 1.324 1.32 3.175-.53 4.498-.53 21.175-.53 43.144v28.848c0 10.32 0 19.851.263 22.762.534 5.028 1.324 6.879 4.235 6.879h12.175c2.118 0 2.648.798 2.648 2.385v4.498c0 1.851-.53 2.647-2.381 2.647-2.114 0-14.292-.797-25.406-.797-15.349 0-25.677.797-28.584.797-1.32 0-2.114-.533-2.114-2.117v-5.292c0-1.591.794-2.121 2.648-2.121H188.4c2.911 0 3.972-1.057 4.231-5.288.263-7.939.263-16.146.263-24.086v-38.909zm-11.908-80.721c0-6.619 5.559-13.765 16.143-13.765 9.264 0 13.766 7.146 13.766 12.968 0 6.883-4.766 14.556-15.349 14.556-5.826.003-14.56-5.289-14.56-13.759zM264.889 362.622h-18.26c-1.324 0-1.854-.53-1.324-2.911l1.057-7.939c.267-1.591 1.061-1.854 3.174-1.854h15.353v-5.024c0-26.204 7.409-43.407 17.733-55.055 14.025-15.349 28.581-20.908 43.403-20.908 12.438 0 24.086 4.765 24.086 14.822 0 6.349-6.883 11.377-11.118 11.377-2.644 0-5.288-.53-7.409-1.587-2.381-1.324-5.292-4.765-6.349-6.089-3.438-4.231-7.146-6.085-12.174-6.085-6.883 0-14.029 1.854-19.848 9.26-9.797 12.438-9.267 35.467-9.267 53.994v5.292h32.025c1.854 0 2.118 1.591 1.854 2.648l-1.324 8.736c-.26 1.058-1.32 1.32-3.438 1.32h-29.115v23.556c0 31.229 0 55.578.267 58.489.53 4.498 1.32 6.879 6.879 6.879h15.085c2.381 0 2.915.533 2.915 2.121v4.231c0 2.117-.534 3.178-1.854 3.178-1.591 0-11.381-.797-31.762-.797-14.556 0-28.054.797-30.171.797-1.587 0-2.118-.534-2.118-1.854v-5.822c0-1.323.534-1.857 2.648-1.857h12.705c5.032 0 6.086-3.171 6.353-9.256v-79.66h-.006zM350.378 389.882c-.53 2.381-.794 6.62-.794 12.705 0 25.94 16.406 45.524 37.581 45.524 16.146 0 27.523-9.264 32.025-18 .53-1.058 1.591-1.588 2.381-1.32l3.438 1.85c.794.264 1.324 1.058 0 3.973-4.765 10.587-18.523 28.851-42.083 28.851-15.085 0-31.758-4.498-41.552-18.794-9.26-13.498-11.645-23.292-11.645-41.819 0-10.32 2.651-28.054 16.677-42.079 11.381-11.648 24.609-14.029 37.848-14.029 30.435 0 38.908 28.581 38.908 38.905 0 3.708-3.178 4.234-7.413 4.234h-65.371zm42.082-7.94c5.029 0 7.146-1.32 7.146-3.704 0-6.09-3.178-23.556-20.377-23.556-11.648 0-22.766 7.676-27.791 27.26h41.022zM540.94 439.904c-19.058-17.996-28.317-48.694-28.317-74.104 0-24.612 7.939-50.026 26.997-70.137 13.495-14.292 37.314-26.733 66.165-26.733 24.086 0 43.938 8.997 53.46 14.552 3.441 2.121 4.766 1.858 5.292 0l2.121-7.673c.53-1.591 1.058-1.591 3.435-1.591 2.384 0 2.915.53 2.915 4.235 0 5.025 5.291 43.933 6.619 51.342.26 1.324 0 2.381-1.061 2.648l-3.969 1.061c-1.319.264-1.854 0-2.651-2.117-3.704-8.737-9.522-21.438-20.645-32.82-11.113-11.381-25.139-20.377-46.051-20.377-47.374 0-66.432 42.079-66.165 80.721 0 15.349 4.766 45.257 25.406 68.019 17.997 20.114 33.079 22.232 50.816 22.232 29.908 0 53.197-16.41 65.371-33.613.794-1.32 1.324-1.587 2.118-.793l3.438 2.647c.794.534 1.323 1.061.534 2.381-15.88 23.025-41.553 44.464-78.87 44.464-31.227.006-51.082-9.788-66.958-24.344zM786.299 428.791c0 15.085 3.174 19.851 7.939 19.851 4.234 0 7.939-2.117 9.26-3.972 1.061-1.32 1.591-1.854 2.651-1.057l2.647 2.113c.794.798 1.32 2.121-.264 4.766-2.117 3.972-7.146 12.972-20.645 12.972-9.526 0-16.405-6.883-18.79-17.737h-.534c-5.559 6.62-14.292 12.175-26.203 16.146-5.028 1.591-9.794 1.591-15.612 1.591-6.353 0-15.887-5.292-15.887-21.969 0-12.174 5.562-22.762 26.467-32.025 11.911-5.292 25.677-11.647 29.908-15.349v-16.94c-.526-4.498-.794-11.377-3.705-14.822-2.911-3.438-8.202-5.822-15.883-5.822-5.292 0-13.495 2.118-17.199 5.56-3.705 3.441-1.32 7.409-1.32 12.174 0 9.264-3.178 15.086-14.032 15.086-4.235 0-6.349-2.381-6.349-8.47 0-8.466 7.409-18.523 18.26-24.876 11.114-6.619 20.381-9.264 32.289-9.264 12.438 0 17.466 3.709 21.171 7.146 5.562 5.559 5.826 11.647 5.826 18.79v56.108h.005zm-19.321-26.738c-9.526 7.15-35.463 12.442-35.463 34.407 0 9.797 5.821 14.555 13.762 14.555 7.68 0 21.705-9.26 21.705-16.405v-32.557h-.004zM833.951 385.384c0-6.349-1.851-10.057-9.527-14.288l-6.085-3.438c-1.854-.798-1.854-1.591-1.854-2.381v-2.118c0-.797.534-1.323 1.854-1.854l25.405-12.705c2.118-1.061 4.235-2.117 6.086-2.117 1.324 0 1.854 1.319 1.854 5.291l1.061 12.705h.794c7.146-9.26 20.911-17.733 38.637-17.733 13.495 0 22.496 5.822 30.176 12.969 10.057 10.057 14.292 20.911 14.292 41.289 0 34.666-24.086 62.46-57.172 62.46-7.146 0-18.261-1.061-26.467-4.498v55.845c0 7.409 1.854 8.736 5.825 8.736h11.648c2.117 0 2.381 1.058 2.381 2.645v4.498c0 1.591-.534 2.385-2.381 2.385-1.324 0-10.32-.798-27.261-.798-15.349 0-24.608.798-26.733.798-1.851 0-2.381-.798-2.381-2.385v-4.765c0-1.32.534-2.378 3.175-2.378h10.32c4.502 0 5.032-2.651 5.562-6.619.794-5.826.794-20.114.794-46.055v-85.489h-.003zm19.054 48.435c0 5.822.534 10.587 5.562 14.028 7.405 5.288 15.612 7.143 26.459 7.143 15.086 0 30.706-11.377 30.706-44.2 0-37.051-16.674-51.873-34.407-51.873-11.114 0-21.965 6.353-28.32 16.94v57.962zM973.435 383.267c0-8.997-1.591-13.762-14.826-15.88-1.851-.263-2.381-.793-2.381-1.85v-2.381c0-.798.534-1.324 1.854-1.854 8.466-3.178 18.526-7.409 28.58-12.969 2.117-1.061 3.441-1.591 5.032-1.591 1.32 0 1.587 1.324 1.32 3.175-.53 4.498-.53 21.175-.53 43.144v28.848c0 10.32 0 19.851.264 22.762.529 5.028 1.323 6.879 4.234 6.879h12.175c2.114 0 2.647.798 2.647 2.385v4.498c0 1.851-.533 2.647-2.381 2.647-2.117 0-14.295-.797-25.409-.797-15.346 0-25.67.797-28.581.797-1.32 0-2.117-.533-2.117-2.117v-5.292c0-1.591.797-2.121 2.651-2.121h12.965c2.915 0 3.972-1.057 4.234-5.288.268-7.939.268-16.146.268-24.086v-38.909zm-11.912-80.721c0-6.619 5.559-13.765 16.143-13.765 9.264 0 13.762 7.146 13.762 12.968 0 6.883-4.766 14.556-15.35 14.556-5.822.003-14.555-5.289-14.555-13.759zM1061.864 427.2c0 19.851 9 23.288 13.766 23.288 6.085 0 13.758-1.057 17.466-3.438 1.32-.794 2.381-.53 3.175.53l1.32 2.381c.794 1.057.263 2.117-.53 2.911-2.648 2.647-13.495 10.591-29.374 10.591-12.973 0-25.677-12.441-25.677-22.499 0-10.851.793-34.143.793-37.844v-5.826c0-4.765.264-22.495.53-33.608h-16.143c-2.381 0-3.972-1.061-3.972-3.179 0-2.113 1.591-2.907 4.766-4.765 6.349-3.705 26.733-24.346 30.175-33.346.794-2.118 2.114-2.648 3.705-2.648 2.113 0 2.647 1.854 2.647 3.972l-1.324 26.2h36.791c1.591 0 2.381 1.323 1.854 2.381l-2.647 9.264c-.264 1.32-.798 2.117-2.381 2.117h-34.144a864.25 864.25 0 0 0-.794 37.054V427.2h-.002zM1190.485 428.791c0 15.085 3.175 19.851 7.94 19.851 4.234 0 7.939-2.117 9.26-3.972 1.061-1.32 1.591-1.854 2.651-1.057l2.647 2.113c.797.798 1.32 2.121-.264 4.766-2.117 3.972-7.146 12.972-20.645 12.972-9.526 0-16.413-6.883-18.794-17.737h-.53c-5.562 6.62-14.292 12.175-26.203 16.146-5.028 1.591-9.794 1.591-15.616 1.591-6.353 0-15.883-5.292-15.883-21.969 0-12.174 5.562-22.762 26.467-32.025 11.911-5.292 25.673-11.647 29.912-15.349v-16.94c-.534-4.498-.798-11.377-3.712-14.822-2.908-3.438-8.199-5.822-15.88-5.822-5.292 0-13.495 2.118-17.199 5.56-3.709 3.441-1.328 7.409-1.328 12.174 0 9.264-3.174 15.086-14.024 15.086-4.235 0-6.35-2.381-6.35-8.47 0-8.466 7.41-18.523 18.261-24.876 11.114-6.619 20.381-9.264 32.289-9.264 12.438 0 17.466 3.709 21.171 7.146 5.562 5.559 5.826 11.647 5.826 18.79v56.108h.004zm-19.32-26.738c-9.526 7.15-35.467 12.442-35.467 34.407 0 9.797 5.825 14.555 13.766 14.555 7.68 0 21.705-9.26 21.705-16.405v-32.557h-.004zM1259.021 381.416c0 13.766 0 53.724.267 61.934.26 4.498 1.32 8.199 6.88 8.199h11.911c2.381 0 2.911.798 2.911 2.385v4.498c0 1.587-.53 2.647-1.591 2.647-1.851 0-13.495-.797-29.904-.797-16.94 0-27.527.797-29.912.797-1.32 0-1.851-1.061-1.851-2.647v-4.498c0-1.854.53-2.385 3.438-2.385h12.709c2.911 0 5.559-1.851 5.822-6.615.263-8.207.263-53.724.263-69.076v-16.677c0-18.79-.263-42.876-.793-49.756-.53-9-4.766-13.231-13.235-15.879l-5.288-1.851c-1.32-.53-1.591-.793-1.591-1.324v-2.121c0-.794.797-1.32 2.38-1.851 9.264-4.235 21.176-9 30.969-15.349 2.381-1.591 3.969-2.118 5.56-2.118 1.854 0 2.381 1.324 2.117 4.765-.264 14.552-1.061 69.606-1.061 84.162v23.557h-.001z"/>
</svg>
